<?xml version="1.0" encoding="UTF-8" standalone="no"?>
<svg
   xmlns:dc="http://purl.org/dc/elements/1.1/"
   xmlns:cc="http://creativecommons.org/ns#"
   xmlns:rdf="http://www.w3.org/1999/02/22-rdf-syntax-ns#"
   xmlns:svg="http://www.w3.org/2000/svg"
   xmlns="http://www.w3.org/2000/svg"
   xmlns:sodipodi="http://sodipodi.sourceforge.net/DTD/sodipodi-0.dtd"
   xmlns:inkscape="http://www.inkscape.org/namespaces/inkscape"
   version="1.1"
   x="0px"
   y="0px"
   viewBox="0 0 64 80"
   style="enable-background:new 0 0 64 64;"
   xml:space="preserve"
   id="svg18"
   sodipodi:docname="worker.svg"
   inkscape:version="0.92.2 (5c3e80d, 2017-08-06)"><metadata
     id="metadata24"><rdf:RDF><cc:Work
         rdf:about=""><dc:format>image/svg+xml</dc:format><dc:type
           rdf:resource="http://purl.org/dc/dcmitype/StillImage" /><dc:title></dc:title></cc:Work></rdf:RDF></metadata><defs
     id="defs22" /><sodipodi:namedview
     pagecolor="#ffffff"
     bordercolor="#666666"
     borderopacity="1"
     objecttolerance="10"
     gridtolerance="10"
     guidetolerance="10"
     inkscape:pageopacity="0"
     inkscape:pageshadow="2"
     inkscape:window-width="1920"
     inkscape:window-height="1023"
     id="namedview20"
     showgrid="false"
     inkscape:zoom="2.95"
     inkscape:cx="-64.711864"
     inkscape:cy="44.067797"
     inkscape:window-x="0"
     inkscape:window-y="25"
     inkscape:window-maximized="1"
     inkscape:current-layer="svg18" /><g
     id="g12"
     transform="matrix(1.0386028,0,0,1.2340119,-1.4050478,0.1609337)"><path
       d="M 62.7,16 C 62.6,15.6 62.4,15.3 62,15.1 61.7,14.9 61.3,14.8 60.9,14.9 60.5,15 60.2,15.2 60,15.6 l -6.1,10 H 41.1 c -0.8,0 -1.5,0.7 -1.5,1.5 0,0.8 0.7,1.5 1.5,1.5 h 14.5 l 7,-11.4 c 0.1,-0.4 0.2,-0.8 0.1,-1.2 z"
       id="path2"
       inkscape:connector-curvature="0" /><path
       d="m 61.3,31.6 c -0.6,-0.6 -1.5,-1 -2.5,-1 H 30.3 c -1.9,0 -3.5,1.6 -3.5,3.5 0,0.9 0.4,1.8 1,2.5 0.6,0.6 1.5,1 2.5,1 h 3.6 V 57.4 H 55.2 V 37.5 h 3.6 c 1.9,0 3.5,-1.5 3.5,-3.5 0,-0.9 -0.4,-1.8 -1,-2.4 z M 51.7,53.8 H 37.5 V 37.2 h 14.2 z"
       id="path4"
       inkscape:connector-curvature="0" /><path
       d="m 21.4,12.2 c 0,3.2 -2.4,5.6 -5.5,5.6 -3.1,0 -5.6,-2.4 -5.6,-5.5 0,-3.1 2.5,-5.6 5.5,-5.6 3.1,0 5.6,2.5 5.6,5.5 z"
       id="path6"
       inkscape:connector-curvature="0" /><path
       d="m 19.1,55.1 c 1.4,0 2.8,-0.1 4.1,-0.1 1.3,-0.1 2.5,-0.1 3.6,-0.1 1.4,0 2.5,-1.1 2.5,-2.5 0,-1.4 -1.1,-2.5 -2.5,-2.5 -1.3,0 -2.6,0.1 -3.9,0.1 -2.8,0.1 -5.7,0.3 -8.1,-0.3 -2,-0.4 -3.7,-1.7 -5,-3.4 C 8.7,44.7 8.4,42.9 8.1,40.6 8.1,40.3 8,39.9 7.9,39.6 L 6.3,28.3 C 6.1,26.9 4.8,26 3.4,26.2 2,26.4 1.1,27.7 1.3,29 L 3,40.2 c 0.1,0.3 0.1,0.7 0.1,1 0.4,2.6 0.8,5.3 2.6,7.9 2,2.8 4.8,4.7 8,5.4 1.8,0.5 3.6,0.6 5.4,0.6 z"
       id="path8"
       inkscape:connector-curvature="0" /><path
       d="m 33.9,24.1 h -3.3 c -0.8,0 -2,0 -3.1,0 -0.4,0 -0.9,-0.1 -1.3,-0.4 -1.6,-0.9 -3.2,-1.9 -5,-3 -1.2,-0.7 -2.8,-1.5 -5.8,-1.3 0,0 -0.1,0 -0.1,0 -3,0.4 -5,2.9 -4.8,6 0,0.2 0,0.4 0,0.6 0.3,4.8 0.7,9.5 0.8,14.3 0,1.9 0.4,3.3 1.3,4.4 1.2,1.6 3.2,2.3 5.9,2.3 2.2,0 4.2,0 6.3,0 0.9,0 1.8,0 2.7,0 0.6,0 1.8,0 2.6,0 0.1,0 0.1,0 0.2,0 0.3,0 0.6,-0.3 0.6,-0.6 V 39.6 C 30.9,39.3 30.7,39 30.3,39 26.9,38.8 22.1,38.5 22.1,38.5 l -0.4,-8.2 c -0.1,-0.5 -0.1,-0.9 -0.1,-1.4 0,-0.6 -0.1,-1.2 -0.1,-1.7 0.2,0.1 0.3,0.2 0.5,0.3 0.9,0.5 1.7,1 2.6,1.4 0.6,0.3 1.2,0.4 1.7,0.4 1.1,0 2.2,0 3.6,0 0.9,0 1.7,0 2.6,0 0.4,0 0.9,0 1.3,0 1.6,0 2.9,-1.2 2.9,-2.7 0.1,-1.4 -1.1,-2.5 -2.8,-2.5 z"
       id="path10"
       inkscape:connector-curvature="0" /></g></svg>